HIERARCHY
ROOT root
{
	OFFSET	0	13.1	24.9
	CHANNELS 6  Xposition Yposition Zposition Xrotation Yrotation Zrotation
	JOINT spine_1
	{
		OFFSET	0	9.99999	0
		CHANNELS 3  Xrotation Yrotation Zrotation
		JOINT spine_2
		{
			OFFSET	0	112	-10
			CHANNELS 3  Xrotation Yrotation Zrotation
			JOINT spine_3
			{
				OFFSET	0	206.5	19.3
				CHANNELS 3  Xrotation Yrotation Zrotation
				JOINT spine_4
				{
					OFFSET	0	110.4	14.6
					CHANNELS 3  Xrotation Yrotation Zrotation
					JOINT neck_1
					{
						OFFSET	0	71.8	-50.3
						CHANNELS 3  Xrotation Yrotation Zrotation
						JOINT neck_2
						{
							OFFSET	0	86.2	-25.8
							CHANNELS 3  Xrotation Yrotation Zrotation
							JOINT head_ee
							{
								OFFSET	0	179.8	-8.7
								CHANNELS 3  Xrotation Yrotation Zrotation
								End Site
								{
									OFFSET	1	0	0
								}
							}
						}
					}
					JOINT left_clavicle
					{
						OFFSET	-43.2	22.4	-70.8
						CHANNELS 3  Xrotation Yrotation Zrotation
						JOINT left_shoulder
						{
							OFFSET	-93.9	-5.79999	48.7
							CHANNELS 3  Xrotation Yrotation Zrotation
							JOINT left_elbow
							{
								OFFSET	-291.4	-30.8	15.2
								CHANNELS 3  Xrotation Yrotation Zrotation
								JOINT left_lowarm_twist
								{
									OFFSET	-110.7	-3.89999	13.6
									CHANNELS 3  Xrotation Yrotation Zrotation
									JOINT left_hand
									{
										OFFSET	-110.7	-3.89999	13.6
										CHANNELS 3  Xrotation Yrotation Zrotation
										JOINT left_ee
										{
											OFFSET	-80.8	-5.10001	12.1
											CHANNELS 3  Xrotation Yrotation Zrotation
											End Site
											{
												OFFSET	1	0	0
											}
										}
									}
								}
							}
						}
					}
					JOINT right_clavicle
					{
						OFFSET	43.2	22.4	-70.8
						CHANNELS 3  Xrotation Yrotation Zrotation
						JOINT right_shoulder
						{
							OFFSET	93.9	-5.79999	48.7
							CHANNELS 3  Xrotation Yrotation Zrotation
							JOINT right_elbow
							{
								OFFSET	291.4	-30.8	15.2
								CHANNELS 3  Xrotation Yrotation Zrotation
								JOINT right_lowarm_twist
								{
									OFFSET	110.7	-3.89999	13.6
									CHANNELS 3  Xrotation Yrotation Zrotation
									JOINT right_hand
									{
										OFFSET	110.7	-3.89999	13.6
										CHANNELS 3  Xrotation Yrotation Zrotation
										JOINT right_ee
										{
											OFFSET	80.8	-5.10001	12.1
											CHANNELS 3  Xrotation Yrotation Zrotation
											End Site
											{
												OFFSET	1	0	0
											}
										}
									}
								}
							}
						}
					}
				}
			}
		}
	}
	JOINT left_hip
	{
		OFFSET	-82.8	-127.5	0.300001
		CHANNELS 3  Xrotation Yrotation Zrotation
		JOINT left_knee
		{
			OFFSET	-28.2	-396.7	2.2
			CHANNELS 3  Xrotation Yrotation Zrotation
			JOINT left_ankle
			{
				OFFSET	-11.7	-411.3	35.4
				CHANNELS 3  Xrotation Yrotation Zrotation
				JOINT left_toes
				{
					OFFSET	0	-60	-88.6
					CHANNELS 3  Xrotation Yrotation Zrotation
					JOINT left_foot_ee
					{
						OFFSET	-22.5	-16.5	-42.2
						CHANNELS 3  Xrotation Yrotation Zrotation
						End Site
						{
							OFFSET	1	0	0
						}
					}
				}
			}
		}
	}
	JOINT right_hip
	{
		OFFSET	82.8	-127.5	0.300001
		CHANNELS 3  Xrotation Yrotation Zrotation
		JOINT right_knee
		{
			OFFSET	28.2	-396.7	2.2
			CHANNELS 3  Xrotation Yrotation Zrotation
			JOINT right_ankle
			{
				OFFSET	11.7	-411.3	35.4
				CHANNELS 3  Xrotation Yrotation Zrotation
				JOINT right_toes
				{
					OFFSET	0	-60	-88.6
					CHANNELS 3  Xrotation Yrotation Zrotation
					JOINT right_foot_ee
					{
						OFFSET	22.5	-16.5	-42.2
						CHANNELS 3  Xrotation Yrotation Zrotation
						End Site
						{
							OFFSET	1	0	0
						}
					}
				}
			}
		}
	}
}
MOTION
Frames: 12
Frame Time: 0.02
3737.76 630.409 -215.22 -159.296 -33.7667 -166.674 6.41094 0.687784 2.45564 6.41414 0.530181 2.4944 6.43303 0.280188 2.53466 6.42471 0.676853 2.45868 -22.7459 6.96229 -0.00218921 -23.0684 13.4337 3.28499 -0.0 0.0 -0.0 1.49917 17.6228 4.36261 8.5898 -18.8196 52.7964 1.35869 -33.941 0.414645 -23.8336 -1.41787 2.67529 3.90382 30.2304 34.9595 -0.0 0.0 -0.0 8.56451 23.1682 -15.9479 -19.9889 14.2966 -81.7234 0.836162 22.4997 -0.166323 -78.9378 7.68692 -5.29279 -8.09433 -27.1453 37.0224 0.0 0.0 0.0 30.9645 -3.95643 -3.72794 -15.3657 0.32204 2.32899 28.3975 28.3958 -4.00673 -7.07626 0.0 0.0 -0.0 0.0 -0.0 51.7343 18.7921 -12.8821 -26.2428 -0.169542 -3.98858 22.4956 26.9211 3.64995 -12.7009 0.0 0.0 0.0 0.0 0.0 
3751.34 641.538 -211.347 -157.943 -32.1409 -165.513 6.78513 0.656854 2.5377 6.78858 0.494098 2.57432 6.80591 0.253321 2.60902 6.79702 0.662055 2.53635 -22.7059 7.80022 -2.80325 -23.1694 16.3346 1.10923 -0.0 0.0 -0.0 0.0185277 21.393 2.51334 8.68517 -19.1229 57.7275 1.39863 -34.7139 0.437171 -22.8288 -1.33628 2.57571 3.4777 30.5963 32.1504 -0.0 0.0 -0.0 7.24224 20.2426 -13.288 -17.998 16.6838 -81.6995 0.822514 22.1683 -0.161137 -79.9664 7.81758 -5.28019 -8.18563 -26.1557 38.8744 0.0 0.0 0.0 30.2376 1.12989 -3.78478 -11.684 0.302038 1.76455 30.3377 27.6093 -4.21584 -6.9042 0.0 0.0 -0.0 0.0 -0.0 50.8932 18.9996 -12.6028 -22.69 -0.253999 -3.44998 22.3942 24.9947 3.55803 -10.2967 0.0 0.0 0.0 0.0 0.0 
3766.32 635.866 -205.185 -156.982 -30.713 -165.519 7.16656 0.626886 2.56478 7.1701 0.462468 2.59944 7.1857 0.236915 2.62959 7.17664 0.6491 2.55925 -22.8713 8.9024 -3.71859 -23.4956 18.8656 0.846423 -0.0 0.0 -0.0 -1.59067 25.1066 0.794572 10.5307 -19.7337 59.9268 1.55161 -37.5441 0.527396 -20.7483 -1.17299 2.36507 3.35824 30.5769 31.3732 -0.0 0.0 -0.0 6.22847 15.4237 -11.4438 -16.0379 19.8921 -80.1657 0.774916 21.0003 -0.143626 -81.6278 8.02796 -5.25486 -8.23862 -25.4612 40.1197 0.0 0.0 0.0 29.8292 7.29944 -3.80681 -9.19756 0.268036 1.38458 33.4572 26.9773 -4.55294 -6.37484 0.0 0.0 -0.0 0.0 -0.0 48.6589 19.1862 -11.4065 -20.2774 -0.292238 -3.08178 23.2112 21.9092 3.55682 -6.77717 0.0 0.0 0.0 0.0 0.0 
3773.05 638.05 -199.185 -156.755 -31.1141 -166.049 7.40448 0.668635 2.86304 7.40891 0.485176 2.89974 7.42645 0.246052 2.92971 7.41517 0.705468 2.85419 -22.5552 9.81163 -3.96351 -23.3041 20.7488 1.03451 -0.0 0.0 -0.0 -2.67057 26.9265 -0.288961 10.0576 -19.5707 62.4807 1.5133 -36.8544 0.50423 -19.3082 -1.06451 2.21591 3.13552 29.4121 29.7895 -0.0 0.0 -0.0 5.45459 10.7588 -10.0927 -15.8037 21.4524 -81.0988 0.735354 20.0153 -0.129766 -83.0199 8.20353 -5.22891 -8.45808 -25.699 41.5809 0.0 0.0 0.0 29.1518 11.7157 -3.34046 -7.4659 0.234627 1.12096 36.6427 26.3377 -4.87529 -6.07192 0.0 0.0 -0.0 0.0 -0.0 47.0014 18.87 -10.5156 -20.106 -0.294364 -3.05557 24.6938 18.8094 3.64872 -3.94423 0.0 0.0 0.0 0.0 0.0 
3783.76 641.931 -190.042 -156.69 -32.365 -166.123 7.46033 0.810028 2.9778 7.46505 0.61899 3.02326 7.49006 0.372907 3.06332 7.47798 0.851809 2.96613 -23.3303 10.5863 -4.06388 -24.2498 22.2262 1.49898 -0.0 0.0 -0.0 -3.49623 26.8698 -1.34895 9.59907 -19.4801 64.167 1.48535 -36.3432 0.487566 -17.9936 -0.968798 2.07742 3.00818 28.7221 28.87 -0.0 0.0 -0.0 5.12323 7.99154 -9.55917 -14.6752 22.251 -81.4822 0.716175 19.5333 -0.123277 -83.8373 8.30628 -5.21166 -8.60361 -25.8802 42.5383 0.0 0.0 0.0 28.1965 14.899 -2.6095 -7.18263 0.228404 1.07794 38.8657 25.8656 -5.08573 -5.85861 0.0 0.0 -0.0 0.0 -0.0 45.9261 18.6187 -9.84952 -19.783 -0.298157 -3.00617 25.763 16.2831 3.7085 -1.87445 0.0 0.0 0.0 0.0 0.0 
3783.37 645.707 -183.955 -155.834 -33.8864 -165.792 7.54317 0.902744 3.01098 7.54793 0.709412 3.06225 7.57792 0.464797 3.10875 7.56569 0.949715 2.9965 -23.7734 11.1196 -4.20257 -24.8205 23.2762 1.75449 -0.0 0.0 -0.0 -4.09144 27.0485 -2.06596 8.64537 -19.2875 65.6699 1.45897 -35.8546 0.472025 -17.0722 -0.90363 1.97909 2.92343 28.2478 28.2511 -0.0 0.0 -0.0 4.90254 6.10725 -9.20615 -13.7211 22.7776 -81.3997 0.703648 19.2169 -0.119121 -84.4258 8.38007 -5.19833 -8.71763 -26.0602 43.248 0.0 0.0 0.0 27.508 17.1248 -2.00093 -6.89607 0.221892 1.03444 40.415 25.5322 -5.22541 -5.70437 0.0 0.0 -0.0 0.0 -0.0 44.3778 18.1723 -10.1312 -19.6533 -0.299603 -2.98631 26.6792 14.5447 3.77289 -0.352531 0.0 0.0 0.0 0.0 0.0 
3792.82 650.477 -178.725 -155.742 -35.2491 -165.611 7.56563 0.966301 3.00529 7.57032 0.773201 3.06062 7.60373 0.530014 3.11192 7.59165 1.01461 2.98934 -24.6185 11.7941 -4.21104 -25.8588 24.4999 2.31261 -0.0 0.0 -0.0 -4.34342 27.08 -2.37885 7.44569 -19.9434 68.771 1.44542 -35.6012 0.464113 -16.4832 -0.862805 1.91568 2.86892 28.4447 27.9383 -0.0 0.0 -0.0 4.99062 4.72941 -9.45313 -12.5789 23.1337 -81.3053 0.689626 18.8613 -0.114547 -84.8855 8.43761 -5.18738 -8.81691 -26.3308 43.7171 0.0 0.0 0.0 27.0444 18.6151 -1.65768 -6.57415 0.214317 0.985625 40.1116 25.481 -5.19458 -5.68622 0.0 0.0 -0.0 0.0 -0.0 43.4068 18.3604 -7.92563 -19.5265 -0.300971 -2.96691 27.0164 12.5849 3.76573 0.727548 -0.0 -0.0 0.0 0.0 0.0 
3795.68 641.686 -178.98 -155.64 -36.3771 -165.557 7.5825 0.996114 2.96777 7.58704 0.805338 3.02507 7.62186 0.565863 3.07882 7.61015 1.04479 2.95099 -24.5138 12.0637 -5.50749 -25.8364 25.5788 1.25793 -0.0 0.0 -0.0 -4.97707 25.7427 -3.53669 4.26278 -19.7178 70.4313 1.47192 -36.0953 0.479634 -14.8773 -0.754847 1.74076 2.96577 28.597 28.5792 -0.0 0.0 -0.0 4.96307 3.98397 -9.43181 -11.9234 23.3687 -80.9506 0.657942 18.0522 -0.104516 -85.1638 8.4724 -5.18053 -8.95405 -26.5728 44.5481 0.0 0.0 0.0 26.8703 19.4952 -1.01329 -6.35039 0.208891 0.951714 40.0574 25.3015 -5.18337 -5.66849 0.0 0.0 -0.0 0.0 -0.0 42.4397 18.2767 -6.61018 -17.4873 -0.317086 -2.65446 27.3888 9.6365 3.74791 1.33055 -0.0 -0.0 0.0 0.0 0.0 
3802.13 634.864 -172.726 -154.927 -36.8882 -165.105 7.59604 0.996013 2.94804 7.60052 0.80649 3.00538 7.6352 0.569265 3.05914 7.62367 1.04505 2.93103 -23.2813 13.2716 -7.24082 -24.8247 28.8027 0.0886517 -0.0 0.0 -0.0 -5.79039 24.6193 -4.93616 2.45575 -17.9588 69.9535 1.49019 -36.4323 0.490441 -13.4608 -0.663733 1.58402 3.47213 29.4265 31.9797 -0.0 0.0 -0.0 4.47911 3.51015 -8.48389 -13.2574 23.5892 -81.1368 0.646076 17.7472 -0.100869 -85.0224 8.45472 -5.18403 -9.52043 -27.6969 47.8907 0.0 0.0 0.0 26.6014 19.1774 -0.148243 -6.77401 0.219053 1.01593 40.8177 24.7166 -5.23644 -5.74086 0.0 0.0 -0.0 0.0 -0.0 41.4838 18.0618 -6.07592 -15.7845 -0.322017 -2.39326 27.4592 6.91781 3.70978 1.76702 -0.0 -0.0 0.0 0.0 0.0 
3803.79 636.019 -172.237 -153.931 -37.5567 -165.351 7.59161 1.11731 3.01158 7.59618 0.923501 3.0765 7.63789 0.680705 3.1391 7.62604 1.16771 2.99242 -23.1527 14.5536 -7.7114 -25.0341 31.4834 0.39961 -0.0 0.0 -0.0 -6.90504 25.8233 -6.07699 0.326479 -17.1847 71.1773 1.51679 -36.9177 0.506324 -12.6142 -0.611151 1.48931 3.81556 30.0497 34.343 -0.0 0.0 -0.0 4.05552 3.28123 -7.65085 -12.6871 23.7871 -82.2396 0.676426 18.5251 -0.110316 -84.9864 8.45023 -5.18492 -9.96561 -28.8234 50.2049 0.0 0.0 0.0 26.618 18.655 0.648932 -7.02419 0.224831 1.05389 40.2719 24.4399 -5.1759 -6.10378 0.0 0.0 -0.0 0.0 -0.0 40.7518 18.0499 -4.66001 -14.5569 -0.320756 -2.20491 27.515 4.879 3.68752 2.06986 -0.0 -0.0 0.0 0.0 0.0 
3805.37 638.434 -170.53 -153.292 -38.2635 -165.536 7.58626 1.21541 3.17525 7.5913 1.011 3.24605 7.63985 0.755027 3.31489 7.62676 1.26882 3.1543 -23.0909 15.4832 -8.02001 -25.2484 33.4062 0.685089 -0.0 0.0 -0.0 -7.43638 26.6436 -6.51037 -1.37299 -16.7379 72.6882 1.53489 -37.2446 0.517239 -12.0253 -0.575398 1.42297 4.05035 30.5455 35.9907 -0.0 0.0 -0.0 3.75906 3.20397 -7.06541 -11.8737 23.9292 -83.309 0.70211 19.1779 -0.118615 -84.9613 8.44709 -5.18553 -10.2808 -29.6307 51.8448 0.0 0.0 0.0 26.8021 18.2239 1.61932 -7.20042 0.228801 1.08064 39.7897 24.2452 -5.12376 -6.38435 0.0 0.0 -0.0 0.0 -0.0 40.1003 17.9802 -4.00573 -13.6959 -0.317464 -2.07285 27.5417 3.45056 3.6735 2.27575 -0.0 -0.0 0.0 0.0 0.0 
3810.31 641.085 -160.259 -152.326 -38.6053 -165.059 7.66504 1.1935 3.16095 7.67005 0.990047 3.23039 7.71708 0.739763 3.29665 7.7041 1.25087 3.1387 -22.5797 16.1163 -8.3212 -24.8753 34.8277 0.653849 -0.0 0.0 -0.0 -7.64552 25.5179 -7.18057 -2.72245 -15.3935 73.9702 1.55406 -37.5877 0.528888 -10.9492 -0.511848 1.30084 4.27106 31.0973 37.5639 -0.0 0.0 -0.0 3.56694 3.2146 -6.68292 -11.4011 23.9475 -83.7037 0.682476 18.6794 -0.112246 -84.9419 8.44467 -5.18601 -10.5971 -30.5141 53.3566 0.0 0.0 0.0 26.3538 17.43 1.78716 -7.3626 0.232382 1.10527 38.6195 24.1212 -5.0064 -6.6843 0.0 0.0 -0.0 0.0 -0.0 39.6218 17.9363 -3.48281 -13.085 -0.313924 -1.97918 27.5853 2.45225 3.6679 2.31217 -0.0 -0.0 0.0 0.0 0.0 
